ISO-10303-21;
HEADER;
FILE_DESCRIPTION(('FreeCAD Model'),'2;1');
FILE_NAME('Open CASCADE Shape Model','2026-09-22T17:43:14',(''),(''),
  'Open CASCADE STEP processor 7.8','FreeCAD','Unknown');
FILE_SCHEMA(('AUTOMOTIVE_DESIGN { 1 0 10303 214 1 1 1 1 }'));
ENDSEC;
DATA;
#1 = APPLICATION_PROTOCOL_DEFINITION('international standard',
  'automotive_design',2000,#2);
#2 = APPLICATION_CONTEXT(
  'core data for automotive mechanical design processes');
#3 = SHAPE_DEFINITION_REPRESENTATION(#4,#10);
#4 = PRODUCT_DEFINITION_SHAPE('','',#5);
#5 = PRODUCT_DEFINITION('design','',#6,#9);
#6 = PRODUCT_DEFINITION_FORMATION('','',#7);
#7 = PRODUCT('Body','Body','',(#8));
#8 = PRODUCT_CONTEXT('',#2,'mechanical');
#9 = PRODUCT_DEFINITION_CONTEXT('part definition',#2,'design');
#10 = ADVANCED_BREP_SHAPE_REPRESENTATION('',(#11,#15),#1007);
#11 = AXIS2_PLACEMENT_3D('',#12,#13,#14);
#12 = CARTESIAN_POINT('',(0.,0.,0.));
#13 = DIRECTION('',(0.,0.,1.));
#14 = DIRECTION('',(1.,0.,-0.));
#15 = MANIFOLD_SOLID_BREP('',#16);
#16 = CLOSED_SHELL('',(#17,#266,#291,#333,#358,#383,#408,#433,#458,#483,
    #508,#533,#558,#583,#608,#633,#658,#683,#708,#733,#758,#783,#808,
    #833,#858,#883,#901,#921,#970,#995));
#17 = ADVANCED_FACE('',(#18),#261,.T.);
#18 = FACE_BOUND('',#19,.F.);
#19 = EDGE_LOOP('',(#20,#29,#37,#46,#55,#64,#73,#82,#91,#100,#109,#118,
    #127,#136,#145,#154,#163,#172,#181,#190,#199,#208,#217,#226,#235,
    #244,#253,#260));
#20 = ORIENTED_EDGE('',*,*,#21,.T.);
#21 = EDGE_CURVE('',#22,#22,#24,.T.);
#22 = VERTEX_POINT('',#23);
#23 = CARTESIAN_POINT('',(6.225,3.497202527569E-16,3.15));
#24 = CIRCLE('',#25,6.225);
#25 = AXIS2_PLACEMENT_3D('',#26,#27,#28);
#26 = CARTESIAN_POINT('',(0.,6.994405055138E-16,3.15));
#27 = DIRECTION('',(0.,-2.22044604925E-16,-1.));
#28 = DIRECTION('',(1.,0.,0.));
#29 = ORIENTED_EDGE('',*,*,#30,.T.);
#30 = EDGE_CURVE('',#22,#31,#33,.T.);
#31 = VERTEX_POINT('',#32);
#32 = CARTESIAN_POINT('',(8.,1.620925615953E-15,7.3));
#33 = LINE('',#34,#35);
#34 = CARTESIAN_POINT('',(6.225,6.994405055138E-16,3.15));
#35 = VECTOR('',#36,1.);
#36 = DIRECTION('',(0.393250725466,2.041547539079E-16,0.919431273625));
#37 = ORIENTED_EDGE('',*,*,#38,.F.);
#38 = EDGE_CURVE('',#39,#31,#41,.T.);
#39 = VERTEX_POINT('',#40);
#40 = CARTESIAN_POINT('',(6.977661943253,3.913084947414,7.3));
#41 = CIRCLE('',#42,8.);
#42 = AXIS2_PLACEMENT_3D('',#43,#44,#45);
#43 = CARTESIAN_POINT('',(0.,1.620925615953E-15,7.3));
#44 = DIRECTION('',(0.,-2.22044604925E-16,-1.));
#45 = DIRECTION('',(1.,0.,0.));
#46 = ORIENTED_EDGE('',*,*,#47,.T.);
#47 = EDGE_CURVE('',#39,#48,#50,.T.);
#48 = VERTEX_POINT('',#49);
#49 = CARTESIAN_POINT('',(5.882347147268,3.107499574347,4.15));
#50 = HYPERBOLA('',#51,2.347960217302,0.996875000132);
#51 = AXIS2_PLACEMENT_3D('',#52,#53,#54);
#52 = CARTESIAN_POINT('',(0.501555687136,-0.868719932945,-11.66533885972
    ));
#53 = DIRECTION('',(0.499434068862,-0.8650451823,4.756514941545E-02));
#54 = DIRECTION('',(-2.378257470772E-02,4.119262772858E-02,
    0.998868137724));
#55 = ORIENTED_EDGE('',*,*,#56,.T.);
#56 = EDGE_CURVE('',#48,#57,#59,.T.);
#57 = VERTEX_POINT('',#58);
#58 = CARTESIAN_POINT('',(5.632347147268,3.540512276239,4.15));
#59 = CIRCLE('',#60,6.652710843373);
#60 = AXIS2_PLACEMENT_3D('',#61,#62,#63);
#61 = CARTESIAN_POINT('',(0.,9.214851104389E-16,4.15));
#62 = DIRECTION('',(-0.,2.22044604925E-16,1.));
#63 = DIRECTION('',(1.,0.,0.));
#64 = ORIENTED_EDGE('',*,*,#65,.T.);
#65 = EDGE_CURVE('',#57,#66,#68,.T.);
#66 = VERTEX_POINT('',#67);
#67 = CARTESIAN_POINT('',(6.877661943253,4.08629002817,7.3));
#68 = HYPERBOLA('',#69,2.347960217302,0.996875000132);
#69 = AXIS2_PLACEMENT_3D('',#70,#71,#72);
#70 = CARTESIAN_POINT('',(-0.501555687136,0.868719932945,-11.66533885972
    ));
#71 = DIRECTION('',(-0.499434068862,0.8650451823,4.756514941545E-02));
#72 = DIRECTION('',(2.378257470772E-02,-4.119262772858E-02,
    0.998868137724));
#73 = ORIENTED_EDGE('',*,*,#74,.F.);
#74 = EDGE_CURVE('',#75,#66,#77,.T.);
#75 = VERTEX_POINT('',#76);
#76 = CARTESIAN_POINT('',(0.1,7.999374975584,7.3));
#77 = CIRCLE('',#78,8.);
#78 = AXIS2_PLACEMENT_3D('',#79,#80,#81);
#79 = CARTESIAN_POINT('',(0.,1.620925615953E-15,7.3));
#80 = DIRECTION('',(0.,-2.22044604925E-16,-1.));
#81 = DIRECTION('',(1.,0.,0.));
#82 = ORIENTED_EDGE('',*,*,#83,.F.);
#83 = EDGE_CURVE('',#84,#75,#86,.T.);
#84 = VERTEX_POINT('',#85);
#85 = CARTESIAN_POINT('',(0.25,6.648011850587,4.15));
#86 = HYPERBOLA('',#87,2.347960217302,0.996875000132);
#87 = AXIS2_PLACEMENT_3D('',#88,#89,#90);
#88 = CARTESIAN_POINT('',(1.003111374273,-2.590225558424E-15,
    -11.66533885972));
#89 = DIRECTION('',(-0.998868137724,-1.056158481015E-17,
    -4.756514941545E-02));
#90 = DIRECTION('',(-4.756514941545E-02,2.217932810132E-16,
    0.998868137724));
#91 = ORIENTED_EDGE('',*,*,#92,.T.);
#92 = EDGE_CURVE('',#84,#93,#95,.T.);
#93 = VERTEX_POINT('',#94);
#94 = CARTESIAN_POINT('',(-0.25,6.648011850587,4.15));
#95 = CIRCLE('',#96,6.652710843373);
#96 = AXIS2_PLACEMENT_3D('',#97,#98,#99);
#97 = CARTESIAN_POINT('',(0.,9.214851104389E-16,4.15));
#98 = DIRECTION('',(-0.,2.22044604925E-16,1.));
#99 = DIRECTION('',(1.,0.,0.));
#100 = ORIENTED_EDGE('',*,*,#101,.T.);
#101 = EDGE_CURVE('',#93,#102,#104,.T.);
#102 = VERTEX_POINT('',#103);
#103 = CARTESIAN_POINT('',(-0.1,7.999374975584,7.3));
#104 = HYPERBOLA('',#105,2.347960217302,0.996875000132);
#105 = AXIS2_PLACEMENT_3D('',#106,#107,#108);
#106 = CARTESIAN_POINT('',(-1.003111374273,-2.590225558424E-15,
    -11.66533885972));
#107 = DIRECTION('',(-0.998868137724,1.056158481015E-17,
    4.756514941545E-02));
#108 = DIRECTION('',(4.756514941545E-02,2.217932810132E-16,
    0.998868137724));
#109 = ORIENTED_EDGE('',*,*,#110,.F.);
#110 = EDGE_CURVE('',#111,#102,#113,.T.);
#111 = VERTEX_POINT('',#112);
#112 = CARTESIAN_POINT('',(-6.877661943253,4.086290028171,7.3));
#113 = CIRCLE('',#114,8.);
#114 = AXIS2_PLACEMENT_3D('',#115,#116,#117);
#115 = CARTESIAN_POINT('',(0.,1.620925615953E-15,7.3));
#116 = DIRECTION('',(0.,-2.22044604925E-16,-1.));
#117 = DIRECTION('',(1.,0.,0.));
#118 = ORIENTED_EDGE('',*,*,#119,.T.);
#119 = EDGE_CURVE('',#111,#120,#122,.T.);
#120 = VERTEX_POINT('',#121);
#121 = CARTESIAN_POINT('',(-5.632347147268,3.540512276239,4.15));
#122 = HYPERBOLA('',#123,2.347960217302,0.996875000132);
#123 = AXIS2_PLACEMENT_3D('',#124,#125,#126);
#124 = CARTESIAN_POINT('',(0.501555687136,0.868719932945,-11.66533885972
    ));
#125 = DIRECTION('',(0.499434068862,0.8650451823,4.756514941545E-02));
#126 = DIRECTION('',(-2.378257470772E-02,-4.119262772858E-02,
    0.998868137724));
#127 = ORIENTED_EDGE('',*,*,#128,.T.);
#128 = EDGE_CURVE('',#120,#129,#131,.T.);
#129 = VERTEX_POINT('',#130);
#130 = CARTESIAN_POINT('',(-5.882347147268,3.107499574347,4.15));
#131 = CIRCLE('',#132,6.652710843373);
#132 = AXIS2_PLACEMENT_3D('',#133,#134,#135);
#133 = CARTESIAN_POINT('',(0.,9.214851104389E-16,4.15));
#134 = DIRECTION('',(-0.,2.22044604925E-16,1.));
#135 = DIRECTION('',(1.,0.,0.));
#136 = ORIENTED_EDGE('',*,*,#137,.T.);
#137 = EDGE_CURVE('',#129,#138,#140,.T.);
#138 = VERTEX_POINT('',#139);
#139 = CARTESIAN_POINT('',(-6.977661943253,3.913084947414,7.3));
#140 = HYPERBOLA('',#141,2.347960217302,0.996875000132);
#141 = AXIS2_PLACEMENT_3D('',#142,#143,#144);
#142 = CARTESIAN_POINT('',(-0.501555687136,-0.868719932945,
    -11.66533885972));
#143 = DIRECTION('',(-0.499434068862,-0.8650451823,4.756514941545E-02));
#144 = DIRECTION('',(2.378257470772E-02,4.119262772858E-02,
    0.998868137724));
#145 = ORIENTED_EDGE('',*,*,#146,.F.);
#146 = EDGE_CURVE('',#147,#138,#149,.T.);
#147 = VERTEX_POINT('',#148);
#148 = CARTESIAN_POINT('',(-6.977661943253,-3.913084947414,7.3));
#149 = CIRCLE('',#150,8.);
#150 = AXIS2_PLACEMENT_3D('',#151,#152,#153);
#151 = CARTESIAN_POINT('',(0.,1.620925615953E-15,7.3));
#152 = DIRECTION('',(0.,-2.22044604925E-16,-1.));
#153 = DIRECTION('',(1.,0.,0.));
#154 = ORIENTED_EDGE('',*,*,#155,.T.);
#155 = EDGE_CURVE('',#147,#156,#158,.T.);
#156 = VERTEX_POINT('',#157);
#157 = CARTESIAN_POINT('',(-5.882347147268,-3.107499574347,4.15));
#158 = HYPERBOLA('',#159,2.347960217302,0.996875000132);
#159 = AXIS2_PLACEMENT_3D('',#160,#161,#162);
#160 = CARTESIAN_POINT('',(-0.501555687136,0.868719932945,
    -11.66533885972));
#161 = DIRECTION('',(-0.499434068862,0.8650451823,4.756514941545E-02));
#162 = DIRECTION('',(2.378257470772E-02,-4.119262772858E-02,
    0.998868137724));
#163 = ORIENTED_EDGE('',*,*,#164,.T.);
#164 = EDGE_CURVE('',#156,#165,#167,.T.);
#165 = VERTEX_POINT('',#166);
#166 = CARTESIAN_POINT('',(-5.632347147268,-3.540512276239,4.15));
#167 = CIRCLE('',#168,6.652710843373);
#168 = AXIS2_PLACEMENT_3D('',#169,#170,#171);
#169 = CARTESIAN_POINT('',(0.,9.214851104389E-16,4.15));
#170 = DIRECTION('',(-0.,2.22044604925E-16,1.));
#171 = DIRECTION('',(1.,0.,0.));
#172 = ORIENTED_EDGE('',*,*,#173,.T.);
#173 = EDGE_CURVE('',#165,#174,#176,.T.);
#174 = VERTEX_POINT('',#175);
#175 = CARTESIAN_POINT('',(-6.877661943253,-4.086290028171,7.3));
#176 = HYPERBOLA('',#177,2.347960217302,0.996875000132);
#177 = AXIS2_PLACEMENT_3D('',#178,#179,#180);
#178 = CARTESIAN_POINT('',(0.501555687136,-0.868719932945,
    -11.66533885972));
#179 = DIRECTION('',(0.499434068862,-0.8650451823,4.756514941545E-02));
#180 = DIRECTION('',(-2.378257470772E-02,4.119262772858E-02,
    0.998868137724));
#181 = ORIENTED_EDGE('',*,*,#182,.F.);
#182 = EDGE_CURVE('',#183,#174,#185,.T.);
#183 = VERTEX_POINT('',#184);
#184 = CARTESIAN_POINT('',(-0.1,-7.999374975584,7.3));
#185 = CIRCLE('',#186,8.);
#186 = AXIS2_PLACEMENT_3D('',#187,#188,#189);
#187 = CARTESIAN_POINT('',(0.,1.620925615953E-15,7.3));
#188 = DIRECTION('',(0.,-2.22044604925E-16,-1.));
#189 = DIRECTION('',(1.,0.,0.));
#190 = ORIENTED_EDGE('',*,*,#191,.T.);
#191 = EDGE_CURVE('',#183,#192,#194,.T.);
#192 = VERTEX_POINT('',#193);
#193 = CARTESIAN_POINT('',(-0.25,-6.648011850587,4.15));
#194 = HYPERBOLA('',#195,2.347960217302,0.996875000132);
#195 = AXIS2_PLACEMENT_3D('',#196,#197,#198);
#196 = CARTESIAN_POINT('',(-1.003111374273,-2.590225558424E-15,
    -11.66533885972));
#197 = DIRECTION('',(-0.998868137724,1.056158481015E-17,
    4.756514941545E-02));
#198 = DIRECTION('',(4.756514941545E-02,2.217932810132E-16,
    0.998868137724));
#199 = ORIENTED_EDGE('',*,*,#200,.T.);
#200 = EDGE_CURVE('',#192,#201,#203,.T.);
#201 = VERTEX_POINT('',#202);
#202 = CARTESIAN_POINT('',(0.25,-6.648011850587,4.15));
#203 = CIRCLE('',#204,6.652710843373);
#204 = AXIS2_PLACEMENT_3D('',#205,#206,#207);
#205 = CARTESIAN_POINT('',(0.,9.214851104389E-16,4.15));
#206 = DIRECTION('',(-0.,2.22044604925E-16,1.));
#207 = DIRECTION('',(1.,0.,0.));
#208 = ORIENTED_EDGE('',*,*,#209,.F.);
#209 = EDGE_CURVE('',#210,#201,#212,.T.);
#210 = VERTEX_POINT('',#211);
#211 = CARTESIAN_POINT('',(0.1,-7.999374975584,7.3));
#212 = HYPERBOLA('',#213,2.347960217302,0.996875000132);
#213 = AXIS2_PLACEMENT_3D('',#214,#215,#216);
#214 = CARTESIAN_POINT('',(1.003111374273,-2.590225558424E-15,
    -11.66533885972));
#215 = DIRECTION('',(-0.998868137724,-1.056158481015E-17,
    -4.756514941545E-02));
#216 = DIRECTION('',(-4.756514941545E-02,2.217932810132E-16,
    0.998868137724));
#217 = ORIENTED_EDGE('',*,*,#218,.F.);
#218 = EDGE_CURVE('',#219,#210,#221,.T.);
#219 = VERTEX_POINT('',#220);
#220 = CARTESIAN_POINT('',(6.877661943253,-4.086290028171,7.3));
#221 = CIRCLE('',#222,8.);
#222 = AXIS2_PLACEMENT_3D('',#223,#224,#225);
#223 = CARTESIAN_POINT('',(0.,1.620925615953E-15,7.3));
#224 = DIRECTION('',(0.,-2.22044604925E-16,-1.));
#225 = DIRECTION('',(1.,0.,0.));
#226 = ORIENTED_EDGE('',*,*,#227,.T.);
#227 = EDGE_CURVE('',#219,#228,#230,.T.);
#228 = VERTEX_POINT('',#229);
#229 = CARTESIAN_POINT('',(5.632347147268,-3.540512276239,4.15));
#230 = HYPERBOLA('',#231,2.347960217302,0.996875000132);
#231 = AXIS2_PLACEMENT_3D('',#232,#233,#234);
#232 = CARTESIAN_POINT('',(-0.501555687136,-0.868719932945,
    -11.66533885972));
#233 = DIRECTION('',(-0.499434068862,-0.8650451823,4.756514941545E-02));
#234 = DIRECTION('',(2.378257470772E-02,4.119262772858E-02,
    0.998868137724));
#235 = ORIENTED_EDGE('',*,*,#236,.T.);
#236 = EDGE_CURVE('',#228,#237,#239,.T.);
#237 = VERTEX_POINT('',#238);
#238 = CARTESIAN_POINT('',(5.882347147268,-3.107499574347,4.15));
#239 = CIRCLE('',#240,6.652710843373);
#240 = AXIS2_PLACEMENT_3D('',#241,#242,#243);
#241 = CARTESIAN_POINT('',(0.,9.214851104389E-16,4.15));
#242 = DIRECTION('',(-0.,2.22044604925E-16,1.));
#243 = DIRECTION('',(1.,0.,0.));
#244 = ORIENTED_EDGE('',*,*,#245,.T.);
#245 = EDGE_CURVE('',#237,#246,#248,.T.);
#246 = VERTEX_POINT('',#247);
#247 = CARTESIAN_POINT('',(6.977661943253,-3.913084947414,7.3));
#248 = HYPERBOLA('',#249,2.347960217302,0.996875000132);
#249 = AXIS2_PLACEMENT_3D('',#250,#251,#252);
#250 = CARTESIAN_POINT('',(0.501555687136,0.868719932945,-11.66533885972
    ));
#251 = DIRECTION('',(0.499434068862,0.8650451823,4.756514941545E-02));
#252 = DIRECTION('',(-2.378257470772E-02,-4.119262772858E-02,
    0.998868137724));
#253 = ORIENTED_EDGE('',*,*,#254,.F.);
#254 = EDGE_CURVE('',#31,#246,#255,.T.);
#255 = CIRCLE('',#256,8.);
#256 = AXIS2_PLACEMENT_3D('',#257,#258,#259);
#257 = CARTESIAN_POINT('',(0.,1.620925615953E-15,7.3));
#258 = DIRECTION('',(0.,-2.22044604925E-16,-1.));
#259 = DIRECTION('',(1.,0.,0.));
#260 = ORIENTED_EDGE('',*,*,#30,.F.);
#261 = CONICAL_SURFACE('',#262,6.225,0.404164513686);
#262 = AXIS2_PLACEMENT_3D('',#263,#264,#265);
#263 = CARTESIAN_POINT('',(0.,6.994405055138E-16,3.15));
#264 = DIRECTION('',(0.,2.22044604925E-16,1.));
#265 = DIRECTION('',(1.,0.,0.));
#266 = ADVANCED_FACE('',(#267),#286,.T.);
#267 = FACE_BOUND('',#268,.F.);
#268 = EDGE_LOOP('',(#269,#277,#278,#279));
#269 = ORIENTED_EDGE('',*,*,#270,.T.);
#270 = EDGE_CURVE('',#271,#22,#273,.T.);
#271 = VERTEX_POINT('',#272);
#272 = CARTESIAN_POINT('',(6.225,0.,0.));
#273 = LINE('',#274,#275);
#274 = CARTESIAN_POINT('',(6.225,0.,0.));
#275 = VECTOR('',#276,1.);
#276 = DIRECTION('',(0.,0.,1.));
#277 = ORIENTED_EDGE('',*,*,#21,.F.);
#278 = ORIENTED_EDGE('',*,*,#270,.F.);
#279 = ORIENTED_EDGE('',*,*,#280,.F.);
#280 = EDGE_CURVE('',#271,#271,#281,.T.);
#281 = CIRCLE('',#282,6.225);
#282 = AXIS2_PLACEMENT_3D('',#283,#284,#285);
#283 = CARTESIAN_POINT('',(0.,0.,0.));
#284 = DIRECTION('',(0.,0.,1.));
#285 = DIRECTION('',(1.,0.,0.));
#286 = CYLINDRICAL_SURFACE('',#287,6.225);
#287 = AXIS2_PLACEMENT_3D('',#288,#289,#290);
#288 = CARTESIAN_POINT('',(0.,0.,0.));
#289 = DIRECTION('',(-0.,-0.,-1.));
#290 = DIRECTION('',(1.,0.,0.));
#291 = ADVANCED_FACE('',(#292),#328,.F.);
#292 = FACE_BOUND('',#293,.T.);
#293 = EDGE_LOOP('',(#294,#302,#311,#320,#326,#327));
#294 = ORIENTED_EDGE('',*,*,#295,.F.);
#295 = EDGE_CURVE('',#296,#39,#298,.T.);
#296 = VERTEX_POINT('',#297);
#297 = CARTESIAN_POINT('',(6.328086890128,3.538052615633,7.3));
#298 = LINE('',#299,#300);
#299 = CARTESIAN_POINT('',(-20.74637580805,-12.09339571133,7.3));
#300 = VECTOR('',#301,1.);
#301 = DIRECTION('',(0.866025403784,0.5,1.110223024625E-16));
#302 = ORIENTED_EDGE('',*,*,#303,.T.);
#303 = EDGE_CURVE('',#296,#304,#306,.T.);
#304 = VERTEX_POINT('',#305);
#305 = CARTESIAN_POINT('',(7.25,1.620925615953E-15,7.3));
#306 = CIRCLE('',#307,7.25);
#307 = AXIS2_PLACEMENT_3D('',#308,#309,#310);
#308 = CARTESIAN_POINT('',(0.,1.620925615953E-15,7.3));
#309 = DIRECTION('',(0.,-2.22044604925E-16,-1.));
#310 = DIRECTION('',(1.,0.,0.));
#311 = ORIENTED_EDGE('',*,*,#312,.T.);
#312 = EDGE_CURVE('',#304,#313,#315,.T.);
#313 = VERTEX_POINT('',#314);
#314 = CARTESIAN_POINT('',(6.328086890128,-3.538052615633,7.3));
#315 = CIRCLE('',#316,7.25);
#316 = AXIS2_PLACEMENT_3D('',#317,#318,#319);
#317 = CARTESIAN_POINT('',(0.,1.620925615953E-15,7.3));
#318 = DIRECTION('',(0.,-2.22044604925E-16,-1.));
#319 = DIRECTION('',(1.,0.,0.));
#320 = ORIENTED_EDGE('',*,*,#321,.F.);
#321 = EDGE_CURVE('',#246,#313,#322,.T.);
#322 = LINE('',#323,#324);
#323 = CARTESIAN_POINT('',(20.846375808058,-11.92019063057,7.3));
#324 = VECTOR('',#325,1.);
#325 = DIRECTION('',(-0.866025403784,0.5,1.110223024625E-16));
#326 = ORIENTED_EDGE('',*,*,#254,.F.);
#327 = ORIENTED_EDGE('',*,*,#38,.F.);
#328 = PLANE('',#329);
#329 = AXIS2_PLACEMENT_3D('',#330,#331,#332);
#330 = CARTESIAN_POINT('',(0.,1.620925615953E-15,7.3));
#331 = DIRECTION('',(-0.,-2.22044604925E-16,-1.));
#332 = DIRECTION('',(1.,0.,0.));
#333 = ADVANCED_FACE('',(#334),#353,.F.);
#334 = FACE_BOUND('',#335,.F.);
#335 = EDGE_LOOP('',(#336,#337,#345,#352));
#336 = ORIENTED_EDGE('',*,*,#245,.F.);
#337 = ORIENTED_EDGE('',*,*,#338,.T.);
#338 = EDGE_CURVE('',#237,#339,#341,.T.);
#339 = VERTEX_POINT('',#340);
#340 = CARTESIAN_POINT('',(4.590741364199,-2.361790627806,4.15));
#341 = LINE('',#342,#343);
#342 = CARTESIAN_POINT('',(20.921375808058,-11.79028682,4.15));
#343 = VECTOR('',#344,1.);
#344 = DIRECTION('',(-0.866025403784,0.5,1.110223024625E-16));
#345 = ORIENTED_EDGE('',*,*,#346,.T.);
#346 = EDGE_CURVE('',#339,#313,#347,.T.);
#347 = HYPERBOLA('',#348,0.943070921142,0.622605340934);
#348 = AXIS2_PLACEMENT_3D('',#349,#350,#351);
#349 = CARTESIAN_POINT('',(0.312109591632,0.540589670236,-3.70860284854)
  );
#350 = DIRECTION('',(0.499434068862,0.8650451823,4.756514941545E-02));
#351 = DIRECTION('',(-2.378257470772E-02,-4.119262772858E-02,
    0.998868137724));
#352 = ORIENTED_EDGE('',*,*,#321,.F.);
#353 = PLANE('',#354);
#354 = AXIS2_PLACEMENT_3D('',#355,#356,#357);
#355 = CARTESIAN_POINT('',(20.921375808058,-11.79028682,4.15));
#356 = DIRECTION('',(0.499434068862,0.8650451823,4.756514941545E-02));
#357 = DIRECTION('',(-2.378257470772E-02,-4.119262772858E-02,
    0.998868137724));
#358 = ADVANCED_FACE('',(#359),#378,.F.);
#359 = FACE_BOUND('',#360,.F.);
#360 = EDGE_LOOP('',(#361,#362,#370,#377));
#361 = ORIENTED_EDGE('',*,*,#236,.F.);
#362 = ORIENTED_EDGE('',*,*,#363,.T.);
#363 = EDGE_CURVE('',#228,#364,#366,.T.);
#364 = VERTEX_POINT('',#365);
#365 = CARTESIAN_POINT('',(4.340741364199,-2.794803329698,4.15));
#366 = LINE('',#367,#368);
#367 = CARTESIAN_POINT('',(20.671375808058,-12.22329952189,4.15));
#368 = VECTOR('',#369,1.);
#369 = DIRECTION('',(-0.866025403784,0.5,1.110223024625E-16));
#370 = ORIENTED_EDGE('',*,*,#371,.T.);
#371 = EDGE_CURVE('',#364,#339,#372,.T.);
#372 = CIRCLE('',#373,5.16265060241);
#373 = AXIS2_PLACEMENT_3D('',#374,#375,#376);
#374 = CARTESIAN_POINT('',(0.,9.214851104389E-16,4.15));
#375 = DIRECTION('',(-0.,2.22044604925E-16,1.));
#376 = DIRECTION('',(1.,0.,0.));
#377 = ORIENTED_EDGE('',*,*,#338,.F.);
#378 = PLANE('',#379);
#379 = AXIS2_PLACEMENT_3D('',#380,#381,#382);
#380 = CARTESIAN_POINT('',(20.671375808058,-12.22329952189,4.15));
#381 = DIRECTION('',(-7.023770310776E-17,1.003893345355E-16,-1.));
#382 = DIRECTION('',(0.5,0.866025403784,5.182086242284E-17));
#383 = ADVANCED_FACE('',(#384),#403,.F.);
#384 = FACE_BOUND('',#385,.F.);
#385 = EDGE_LOOP('',(#386,#387,#395,#402));
#386 = ORIENTED_EDGE('',*,*,#227,.F.);
#387 = ORIENTED_EDGE('',*,*,#388,.T.);
#388 = EDGE_CURVE('',#219,#389,#391,.T.);
#389 = VERTEX_POINT('',#390);
#390 = CARTESIAN_POINT('',(6.228086890128,-3.71125769639,7.3));
#391 = LINE('',#392,#393);
#392 = CARTESIAN_POINT('',(20.746375808058,-12.09339571133,7.3));
#393 = VECTOR('',#394,1.);
#394 = DIRECTION('',(-0.866025403784,0.5,1.110223024625E-16));
#395 = ORIENTED_EDGE('',*,*,#396,.T.);
#396 = EDGE_CURVE('',#389,#364,#397,.T.);
#397 = HYPERBOLA('',#398,0.943070921142,0.622605340934);
#398 = AXIS2_PLACEMENT_3D('',#399,#400,#401);
#399 = CARTESIAN_POINT('',(-0.312109591632,-0.540589670236,
    -3.70860284854));
#400 = DIRECTION('',(-0.499434068862,-0.8650451823,4.756514941545E-02));
#401 = DIRECTION('',(2.378257470772E-02,4.119262772858E-02,
    0.998868137724));
#402 = ORIENTED_EDGE('',*,*,#363,.F.);
#403 = PLANE('',#404);
#404 = AXIS2_PLACEMENT_3D('',#405,#406,#407);
#405 = CARTESIAN_POINT('',(20.746375808058,-12.09339571133,7.3));
#406 = DIRECTION('',(-0.499434068862,-0.8650451823,4.756514941545E-02));
#407 = DIRECTION('',(-2.378257470772E-02,-4.119262772858E-02,
    -0.998868137724));
#408 = ADVANCED_FACE('',(#409),#428,.F.);
#409 = FACE_BOUND('',#410,.T.);
#410 = EDGE_LOOP('',(#411,#412,#421,#427));
#411 = ORIENTED_EDGE('',*,*,#388,.T.);
#412 = ORIENTED_EDGE('',*,*,#413,.T.);
#413 = EDGE_CURVE('',#389,#414,#416,.T.);
#414 = VERTEX_POINT('',#415);
#415 = CARTESIAN_POINT('',(0.1,-7.249310312023,7.3));
#416 = CIRCLE('',#417,7.25);
#417 = AXIS2_PLACEMENT_3D('',#418,#419,#420);
#418 = CARTESIAN_POINT('',(0.,1.620925615953E-15,7.3));
#419 = DIRECTION('',(0.,-2.22044604925E-16,-1.));
#420 = DIRECTION('',(1.,0.,0.));
#421 = ORIENTED_EDGE('',*,*,#422,.F.);
#422 = EDGE_CURVE('',#210,#414,#423,.T.);
#423 = LINE('',#424,#425);
#424 = CARTESIAN_POINT('',(0.1,-24.0135863419,7.3));
#425 = VECTOR('',#426,1.);
#426 = DIRECTION('',(0.,1.,-2.22044604925E-16));
#427 = ORIENTED_EDGE('',*,*,#218,.F.);
#428 = PLANE('',#429);
#429 = AXIS2_PLACEMENT_3D('',#430,#431,#432);
#430 = CARTESIAN_POINT('',(0.,1.620925615953E-15,7.3));
#431 = DIRECTION('',(-0.,-2.22044604925E-16,-1.));
#432 = DIRECTION('',(1.,0.,0.));
#433 = ADVANCED_FACE('',(#434),#453,.T.);
#434 = FACE_BOUND('',#435,.T.);
#435 = EDGE_LOOP('',(#436,#437,#438,#447));
#436 = ORIENTED_EDGE('',*,*,#209,.F.);
#437 = ORIENTED_EDGE('',*,*,#422,.T.);
#438 = ORIENTED_EDGE('',*,*,#439,.T.);
#439 = EDGE_CURVE('',#414,#440,#442,.T.);
#440 = VERTEX_POINT('',#441);
#441 = CARTESIAN_POINT('',(0.25,-5.156593957503,4.15));
#442 = HYPERBOLA('',#443,0.943070921142,0.622605340934);
#443 = AXIS2_PLACEMENT_3D('',#444,#445,#446);
#444 = CARTESIAN_POINT('',(0.624219183264,-8.234752543279E-16,
    -3.70860284854));
#445 = DIRECTION('',(-0.998868137724,-1.056158481015E-17,
    -4.756514941545E-02));
#446 = DIRECTION('',(-4.756514941545E-02,2.217932810132E-16,
    0.998868137724));
#447 = ORIENTED_EDGE('',*,*,#448,.F.);
#448 = EDGE_CURVE('',#201,#440,#449,.T.);
#449 = LINE('',#450,#451);
#450 = CARTESIAN_POINT('',(0.25,-24.0135863419,4.15));
#451 = VECTOR('',#452,1.);
#452 = DIRECTION('',(0.,1.,-2.22044604925E-16));
#453 = PLANE('',#454);
#454 = AXIS2_PLACEMENT_3D('',#455,#456,#457);
#455 = CARTESIAN_POINT('',(0.1,-24.0135863419,7.3));
#456 = DIRECTION('',(-0.998868137724,-1.056158481015E-17,
    -4.756514941545E-02));
#457 = DIRECTION('',(4.756514941545E-02,-2.217932810132E-16,
    -0.998868137724));
#458 = ADVANCED_FACE('',(#459),#478,.F.);
#459 = FACE_BOUND('',#460,.F.);
#460 = EDGE_LOOP('',(#461,#462,#470,#477));
#461 = ORIENTED_EDGE('',*,*,#200,.F.);
#462 = ORIENTED_EDGE('',*,*,#463,.T.);
#463 = EDGE_CURVE('',#192,#464,#466,.T.);
#464 = VERTEX_POINT('',#465);
#465 = CARTESIAN_POINT('',(-0.25,-5.156593957503,4.15));
#466 = LINE('',#467,#468);
#467 = CARTESIAN_POINT('',(-0.25,-24.0135863419,4.15));
#468 = VECTOR('',#469,1.);
#469 = DIRECTION('',(0.,1.,-2.22044604925E-16));
#470 = ORIENTED_EDGE('',*,*,#471,.T.);
#471 = EDGE_CURVE('',#464,#440,#472,.T.);
#472 = CIRCLE('',#473,5.16265060241);
#473 = AXIS2_PLACEMENT_3D('',#474,#475,#476);
#474 = CARTESIAN_POINT('',(0.,9.214851104389E-16,4.15));
#475 = DIRECTION('',(-0.,2.22044604925E-16,1.));
#476 = DIRECTION('',(1.,0.,0.));
#477 = ORIENTED_EDGE('',*,*,#448,.F.);
#478 = PLANE('',#479);
#479 = AXIS2_PLACEMENT_3D('',#480,#481,#482);
#480 = CARTESIAN_POINT('',(-0.25,-24.0135863419,4.15));
#481 = DIRECTION('',(0.,-2.22044604925E-16,-1.));
#482 = DIRECTION('',(1.,0.,0.));
#483 = ADVANCED_FACE('',(#484),#503,.F.);
#484 = FACE_BOUND('',#485,.F.);
#485 = EDGE_LOOP('',(#486,#487,#495,#502));
#486 = ORIENTED_EDGE('',*,*,#191,.F.);
#487 = ORIENTED_EDGE('',*,*,#488,.T.);
#488 = EDGE_CURVE('',#183,#489,#491,.T.);
#489 = VERTEX_POINT('',#490);
#490 = CARTESIAN_POINT('',(-9.999999999989E-02,-7.249310312023,7.3));
#491 = LINE('',#492,#493);
#492 = CARTESIAN_POINT('',(-0.1,-24.0135863419,7.3));
#493 = VECTOR('',#494,1.);
#494 = DIRECTION('',(0.,1.,-2.22044604925E-16));
#495 = ORIENTED_EDGE('',*,*,#496,.T.);
#496 = EDGE_CURVE('',#489,#464,#497,.T.);
#497 = HYPERBOLA('',#498,0.943070921142,0.622605340934);
#498 = AXIS2_PLACEMENT_3D('',#499,#500,#501);
#499 = CARTESIAN_POINT('',(-0.624219183264,-8.234752543279E-16,
    -3.70860284854));
#500 = DIRECTION('',(-0.998868137724,1.056158481015E-17,
    4.756514941545E-02));
#501 = DIRECTION('',(4.756514941545E-02,2.217932810132E-16,
    0.998868137724));
#502 = ORIENTED_EDGE('',*,*,#463,.F.);
#503 = PLANE('',#504);
#504 = AXIS2_PLACEMENT_3D('',#505,#506,#507);
#505 = CARTESIAN_POINT('',(-0.1,-24.0135863419,7.3));
#506 = DIRECTION('',(-0.998868137724,1.056158481015E-17,
    4.756514941545E-02));
#507 = DIRECTION('',(-4.756514941545E-02,-2.217932810132E-16,
    -0.998868137724));
#508 = ADVANCED_FACE('',(#509),#528,.F.);
#509 = FACE_BOUND('',#510,.T.);
#510 = EDGE_LOOP('',(#511,#512,#513,#522));
#511 = ORIENTED_EDGE('',*,*,#182,.F.);
#512 = ORIENTED_EDGE('',*,*,#488,.T.);
#513 = ORIENTED_EDGE('',*,*,#514,.T.);
#514 = EDGE_CURVE('',#489,#515,#517,.T.);
#515 = VERTEX_POINT('',#516);
#516 = CARTESIAN_POINT('',(-6.228086890128,-3.71125769639,7.3));
#517 = CIRCLE('',#518,7.25);
#518 = AXIS2_PLACEMENT_3D('',#519,#520,#521);
#519 = CARTESIAN_POINT('',(0.,1.620925615953E-15,7.3));
#520 = DIRECTION('',(0.,-2.22044604925E-16,-1.));
#521 = DIRECTION('',(1.,0.,0.));
#522 = ORIENTED_EDGE('',*,*,#523,.F.);
#523 = EDGE_CURVE('',#174,#515,#524,.T.);
#524 = LINE('',#525,#526);
#525 = CARTESIAN_POINT('',(-20.74637580805,-12.09339571133,7.3));
#526 = VECTOR('',#527,1.);
#527 = DIRECTION('',(0.866025403784,0.5,1.110223024625E-16));
#528 = PLANE('',#529);
#529 = AXIS2_PLACEMENT_3D('',#530,#531,#532);
#530 = CARTESIAN_POINT('',(0.,1.620925615953E-15,7.3));
#531 = DIRECTION('',(-0.,-2.22044604925E-16,-1.));
#532 = DIRECTION('',(1.,0.,0.));
#533 = ADVANCED_FACE('',(#534),#553,.F.);
#534 = FACE_BOUND('',#535,.F.);
#535 = EDGE_LOOP('',(#536,#537,#545,#552));
#536 = ORIENTED_EDGE('',*,*,#173,.F.);
#537 = ORIENTED_EDGE('',*,*,#538,.T.);
#538 = EDGE_CURVE('',#165,#539,#541,.T.);
#539 = VERTEX_POINT('',#540);
#540 = CARTESIAN_POINT('',(-4.340741364199,-2.794803329698,4.15));
#541 = LINE('',#542,#543);
#542 = CARTESIAN_POINT('',(-20.67137580805,-12.22329952189,4.15));
#543 = VECTOR('',#544,1.);
#544 = DIRECTION('',(0.866025403784,0.5,1.110223024625E-16));
#545 = ORIENTED_EDGE('',*,*,#546,.T.);
#546 = EDGE_CURVE('',#539,#515,#547,.T.);
#547 = HYPERBOLA('',#548,0.943070921142,0.622605340934);
#548 = AXIS2_PLACEMENT_3D('',#549,#550,#551);
#549 = CARTESIAN_POINT('',(0.312109591632,-0.540589670236,-3.70860284854
    ));
#550 = DIRECTION('',(0.499434068862,-0.8650451823,4.756514941545E-02));
#551 = DIRECTION('',(-2.378257470772E-02,4.119262772858E-02,
    0.998868137724));
#552 = ORIENTED_EDGE('',*,*,#523,.F.);
#553 = PLANE('',#554);
#554 = AXIS2_PLACEMENT_3D('',#555,#556,#557);
#555 = CARTESIAN_POINT('',(-20.67137580805,-12.22329952189,4.15));
#556 = DIRECTION('',(0.499434068862,-0.8650451823,4.756514941545E-02));
#557 = DIRECTION('',(-2.378257470772E-02,4.119262772858E-02,
    0.998868137724));
#558 = ADVANCED_FACE('',(#559),#578,.F.);
#559 = FACE_BOUND('',#560,.F.);
#560 = EDGE_LOOP('',(#561,#562,#570,#577));
#561 = ORIENTED_EDGE('',*,*,#164,.F.);
#562 = ORIENTED_EDGE('',*,*,#563,.T.);
#563 = EDGE_CURVE('',#156,#564,#566,.T.);
#564 = VERTEX_POINT('',#565);
#565 = CARTESIAN_POINT('',(-4.590741364199,-2.361790627806,4.15));
#566 = LINE('',#567,#568);
#567 = CARTESIAN_POINT('',(-20.92137580805,-11.79028682,4.15));
#568 = VECTOR('',#569,1.);
#569 = DIRECTION('',(0.866025403784,0.5,1.110223024625E-16));
#570 = ORIENTED_EDGE('',*,*,#571,.T.);
#571 = EDGE_CURVE('',#564,#539,#572,.T.);
#572 = CIRCLE('',#573,5.16265060241);
#573 = AXIS2_PLACEMENT_3D('',#574,#575,#576);
#574 = CARTESIAN_POINT('',(0.,9.214851104389E-16,4.15));
#575 = DIRECTION('',(-0.,2.22044604925E-16,1.));
#576 = DIRECTION('',(1.,0.,0.));
#577 = ORIENTED_EDGE('',*,*,#538,.F.);
#578 = PLANE('',#579);
#579 = AXIS2_PLACEMENT_3D('',#580,#581,#582);
#580 = CARTESIAN_POINT('',(-20.92137580805,-11.79028682,4.15));
#581 = DIRECTION('',(7.023770310776E-17,1.003893345355E-16,-1.));
#582 = DIRECTION('',(0.5,-0.866025403784,-5.182086242284E-17));
#583 = ADVANCED_FACE('',(#584),#603,.F.);
#584 = FACE_BOUND('',#585,.F.);
#585 = EDGE_LOOP('',(#586,#587,#595,#602));
#586 = ORIENTED_EDGE('',*,*,#155,.F.);
#587 = ORIENTED_EDGE('',*,*,#588,.T.);
#588 = EDGE_CURVE('',#147,#589,#591,.T.);
#589 = VERTEX_POINT('',#590);
#590 = CARTESIAN_POINT('',(-6.328086890128,-3.538052615633,7.3));
#591 = LINE('',#592,#593);
#592 = CARTESIAN_POINT('',(-20.84637580805,-11.92019063057,7.3));
#593 = VECTOR('',#594,1.);
#594 = DIRECTION('',(0.866025403784,0.5,1.110223024625E-16));
#595 = ORIENTED_EDGE('',*,*,#596,.T.);
#596 = EDGE_CURVE('',#589,#564,#597,.T.);
#597 = HYPERBOLA('',#598,0.943070921142,0.622605340934);
#598 = AXIS2_PLACEMENT_3D('',#599,#600,#601);
#599 = CARTESIAN_POINT('',(-0.312109591632,0.540589670236,-3.70860284854
    ));
#600 = DIRECTION('',(-0.499434068862,0.8650451823,4.756514941545E-02));
#601 = DIRECTION('',(2.378257470772E-02,-4.119262772858E-02,
    0.998868137724));
#602 = ORIENTED_EDGE('',*,*,#563,.F.);
#603 = PLANE('',#604);
#604 = AXIS2_PLACEMENT_3D('',#605,#606,#607);
#605 = CARTESIAN_POINT('',(-20.84637580805,-11.92019063057,7.3));
#606 = DIRECTION('',(-0.499434068862,0.8650451823,4.756514941545E-02));
#607 = DIRECTION('',(-2.378257470772E-02,4.119262772858E-02,
    -0.998868137724));
#608 = ADVANCED_FACE('',(#609),#628,.F.);
#609 = FACE_BOUND('',#610,.T.);
#610 = EDGE_LOOP('',(#611,#612,#613,#622));
#611 = ORIENTED_EDGE('',*,*,#146,.F.);
#612 = ORIENTED_EDGE('',*,*,#588,.T.);
#613 = ORIENTED_EDGE('',*,*,#614,.T.);
#614 = EDGE_CURVE('',#589,#615,#617,.T.);
#615 = VERTEX_POINT('',#616);
#616 = CARTESIAN_POINT('',(-6.328086890128,3.538052615633,7.3));
#617 = CIRCLE('',#618,7.25);
#618 = AXIS2_PLACEMENT_3D('',#619,#620,#621);
#619 = CARTESIAN_POINT('',(0.,1.620925615953E-15,7.3));
#620 = DIRECTION('',(0.,-2.22044604925E-16,-1.));
#621 = DIRECTION('',(1.,0.,0.));
#622 = ORIENTED_EDGE('',*,*,#623,.T.);
#623 = EDGE_CURVE('',#615,#138,#624,.T.);
#624 = LINE('',#625,#626);
#625 = CARTESIAN_POINT('',(20.746375808058,-12.09339571133,7.3));
#626 = VECTOR('',#627,1.);
#627 = DIRECTION('',(-0.866025403784,0.5,1.110223024625E-16));
#628 = PLANE('',#629);
#629 = AXIS2_PLACEMENT_3D('',#630,#631,#632);
#630 = CARTESIAN_POINT('',(0.,1.620925615953E-15,7.3));
#631 = DIRECTION('',(-0.,-2.22044604925E-16,-1.));
#632 = DIRECTION('',(1.,0.,0.));
#633 = ADVANCED_FACE('',(#634),#653,.F.);
#634 = FACE_BOUND('',#635,.F.);
#635 = EDGE_LOOP('',(#636,#645,#646,#647));
#636 = ORIENTED_EDGE('',*,*,#637,.T.);
#637 = EDGE_CURVE('',#638,#615,#640,.T.);
#638 = VERTEX_POINT('',#639);
#639 = CARTESIAN_POINT('',(-4.590741364199,2.361790627806,4.15));
#640 = HYPERBOLA('',#641,0.943070921142,0.622605340934);
#641 = AXIS2_PLACEMENT_3D('',#642,#643,#644);
#642 = CARTESIAN_POINT('',(-0.312109591632,-0.540589670236,
    -3.70860284854));
#643 = DIRECTION('',(-0.499434068862,-0.8650451823,4.756514941545E-02));
#644 = DIRECTION('',(2.378257470772E-02,4.119262772858E-02,
    0.998868137724));
#645 = ORIENTED_EDGE('',*,*,#623,.T.);
#646 = ORIENTED_EDGE('',*,*,#137,.F.);
#647 = ORIENTED_EDGE('',*,*,#648,.F.);
#648 = EDGE_CURVE('',#638,#129,#649,.T.);
#649 = LINE('',#650,#651);
#650 = CARTESIAN_POINT('',(20.671375808058,-12.22329952189,4.15));
#651 = VECTOR('',#652,1.);
#652 = DIRECTION('',(-0.866025403784,0.5,1.110223024625E-16));
#653 = PLANE('',#654);
#654 = AXIS2_PLACEMENT_3D('',#655,#656,#657);
#655 = CARTESIAN_POINT('',(20.746375808058,-12.09339571133,7.3));
#656 = DIRECTION('',(-0.499434068862,-0.8650451823,4.756514941545E-02));
#657 = DIRECTION('',(-2.378257470772E-02,-4.119262772858E-02,
    -0.998868137724));
#658 = ADVANCED_FACE('',(#659),#678,.F.);
#659 = FACE_BOUND('',#660,.F.);
#660 = EDGE_LOOP('',(#661,#670,#671,#672));
#661 = ORIENTED_EDGE('',*,*,#662,.T.);
#662 = EDGE_CURVE('',#663,#638,#665,.T.);
#663 = VERTEX_POINT('',#664);
#664 = CARTESIAN_POINT('',(-4.340741364199,2.794803329698,4.15));
#665 = CIRCLE('',#666,5.16265060241);
#666 = AXIS2_PLACEMENT_3D('',#667,#668,#669);
#667 = CARTESIAN_POINT('',(0.,9.214851104389E-16,4.15));
#668 = DIRECTION('',(-0.,2.22044604925E-16,1.));
#669 = DIRECTION('',(1.,0.,0.));
#670 = ORIENTED_EDGE('',*,*,#648,.T.);
#671 = ORIENTED_EDGE('',*,*,#128,.F.);
#672 = ORIENTED_EDGE('',*,*,#673,.F.);
#673 = EDGE_CURVE('',#663,#120,#674,.T.);
#674 = LINE('',#675,#676);
#675 = CARTESIAN_POINT('',(20.921375808058,-11.79028682,4.15));
#676 = VECTOR('',#677,1.);
#677 = DIRECTION('',(-0.866025403784,0.5,1.110223024625E-16));
#678 = PLANE('',#679);
#679 = AXIS2_PLACEMENT_3D('',#680,#681,#682);
#680 = CARTESIAN_POINT('',(20.671375808058,-12.22329952189,4.15));
#681 = DIRECTION('',(-7.023770310776E-17,1.003893345355E-16,-1.));
#682 = DIRECTION('',(0.5,0.866025403784,5.182086242284E-17));
#683 = ADVANCED_FACE('',(#684),#703,.F.);
#684 = FACE_BOUND('',#685,.F.);
#685 = EDGE_LOOP('',(#686,#695,#696,#697));
#686 = ORIENTED_EDGE('',*,*,#687,.T.);
#687 = EDGE_CURVE('',#688,#663,#690,.T.);
#688 = VERTEX_POINT('',#689);
#689 = CARTESIAN_POINT('',(-6.228086890128,3.71125769639,7.3));
#690 = HYPERBOLA('',#691,0.943070921142,0.622605340934);
#691 = AXIS2_PLACEMENT_3D('',#692,#693,#694);
#692 = CARTESIAN_POINT('',(0.312109591632,0.540589670236,-3.70860284854)
  );
#693 = DIRECTION('',(0.499434068862,0.8650451823,4.756514941545E-02));
#694 = DIRECTION('',(-2.378257470772E-02,-4.119262772858E-02,
    0.998868137724));
#695 = ORIENTED_EDGE('',*,*,#673,.T.);
#696 = ORIENTED_EDGE('',*,*,#119,.F.);
#697 = ORIENTED_EDGE('',*,*,#698,.F.);
#698 = EDGE_CURVE('',#688,#111,#699,.T.);
#699 = LINE('',#700,#701);
#700 = CARTESIAN_POINT('',(20.846375808058,-11.92019063057,7.3));
#701 = VECTOR('',#702,1.);
#702 = DIRECTION('',(-0.866025403784,0.5,1.110223024625E-16));
#703 = PLANE('',#704);
#704 = AXIS2_PLACEMENT_3D('',#705,#706,#707);
#705 = CARTESIAN_POINT('',(20.921375808058,-11.79028682,4.15));
#706 = DIRECTION('',(0.499434068862,0.8650451823,4.756514941545E-02));
#707 = DIRECTION('',(-2.378257470772E-02,-4.119262772858E-02,
    0.998868137724));
#708 = ADVANCED_FACE('',(#709),#728,.F.);
#709 = FACE_BOUND('',#710,.T.);
#710 = EDGE_LOOP('',(#711,#712,#713,#722));
#711 = ORIENTED_EDGE('',*,*,#110,.F.);
#712 = ORIENTED_EDGE('',*,*,#698,.F.);
#713 = ORIENTED_EDGE('',*,*,#714,.T.);
#714 = EDGE_CURVE('',#688,#715,#717,.T.);
#715 = VERTEX_POINT('',#716);
#716 = CARTESIAN_POINT('',(-9.999999999989E-02,7.249310312023,7.3));
#717 = CIRCLE('',#718,7.25);
#718 = AXIS2_PLACEMENT_3D('',#719,#720,#721);
#719 = CARTESIAN_POINT('',(0.,1.620925615953E-15,7.3));
#720 = DIRECTION('',(0.,-2.22044604925E-16,-1.));
#721 = DIRECTION('',(1.,0.,0.));
#722 = ORIENTED_EDGE('',*,*,#723,.T.);
#723 = EDGE_CURVE('',#715,#102,#724,.T.);
#724 = LINE('',#725,#726);
#725 = CARTESIAN_POINT('',(-0.1,-24.0135863419,7.3));
#726 = VECTOR('',#727,1.);
#727 = DIRECTION('',(0.,1.,-2.22044604925E-16));
#728 = PLANE('',#729);
#729 = AXIS2_PLACEMENT_3D('',#730,#731,#732);
#730 = CARTESIAN_POINT('',(0.,1.620925615953E-15,7.3));
#731 = DIRECTION('',(-0.,-2.22044604925E-16,-1.));
#732 = DIRECTION('',(1.,0.,0.));
#733 = ADVANCED_FACE('',(#734),#753,.F.);
#734 = FACE_BOUND('',#735,.F.);
#735 = EDGE_LOOP('',(#736,#745,#746,#747));
#736 = ORIENTED_EDGE('',*,*,#737,.T.);
#737 = EDGE_CURVE('',#738,#715,#740,.T.);
#738 = VERTEX_POINT('',#739);
#739 = CARTESIAN_POINT('',(-0.25,5.156593957503,4.15));
#740 = HYPERBOLA('',#741,0.943070921142,0.622605340934);
#741 = AXIS2_PLACEMENT_3D('',#742,#743,#744);
#742 = CARTESIAN_POINT('',(-0.624219183264,-8.234752543279E-16,
    -3.70860284854));
#743 = DIRECTION('',(-0.998868137724,1.056158481015E-17,
    4.756514941545E-02));
#744 = DIRECTION('',(4.756514941545E-02,2.217932810132E-16,
    0.998868137724));
#745 = ORIENTED_EDGE('',*,*,#723,.T.);
#746 = ORIENTED_EDGE('',*,*,#101,.F.);
#747 = ORIENTED_EDGE('',*,*,#748,.F.);
#748 = EDGE_CURVE('',#738,#93,#749,.T.);
#749 = LINE('',#750,#751);
#750 = CARTESIAN_POINT('',(-0.25,-24.0135863419,4.15));
#751 = VECTOR('',#752,1.);
#752 = DIRECTION('',(0.,1.,-2.22044604925E-16));
#753 = PLANE('',#754);
#754 = AXIS2_PLACEMENT_3D('',#755,#756,#757);
#755 = CARTESIAN_POINT('',(-0.1,-24.0135863419,7.3));
#756 = DIRECTION('',(-0.998868137724,1.056158481015E-17,
    4.756514941545E-02));
#757 = DIRECTION('',(-4.756514941545E-02,-2.217932810132E-16,
    -0.998868137724));
#758 = ADVANCED_FACE('',(#759),#778,.F.);
#759 = FACE_BOUND('',#760,.F.);
#760 = EDGE_LOOP('',(#761,#770,#771,#772));
#761 = ORIENTED_EDGE('',*,*,#762,.T.);
#762 = EDGE_CURVE('',#763,#738,#765,.T.);
#763 = VERTEX_POINT('',#764);
#764 = CARTESIAN_POINT('',(0.25,5.156593957503,4.15));
#765 = CIRCLE('',#766,5.16265060241);
#766 = AXIS2_PLACEMENT_3D('',#767,#768,#769);
#767 = CARTESIAN_POINT('',(0.,9.214851104389E-16,4.15));
#768 = DIRECTION('',(-0.,2.22044604925E-16,1.));
#769 = DIRECTION('',(1.,0.,0.));
#770 = ORIENTED_EDGE('',*,*,#748,.T.);
#771 = ORIENTED_EDGE('',*,*,#92,.F.);
#772 = ORIENTED_EDGE('',*,*,#773,.F.);
#773 = EDGE_CURVE('',#763,#84,#774,.T.);
#774 = LINE('',#775,#776);
#775 = CARTESIAN_POINT('',(0.25,-24.0135863419,4.15));
#776 = VECTOR('',#777,1.);
#777 = DIRECTION('',(0.,1.,-2.22044604925E-16));
#778 = PLANE('',#779);
#779 = AXIS2_PLACEMENT_3D('',#780,#781,#782);
#780 = CARTESIAN_POINT('',(-0.25,-24.0135863419,4.15));
#781 = DIRECTION('',(0.,-2.22044604925E-16,-1.));
#782 = DIRECTION('',(1.,0.,0.));
#783 = ADVANCED_FACE('',(#784),#803,.T.);
#784 = FACE_BOUND('',#785,.T.);
#785 = EDGE_LOOP('',(#786,#795,#801,#802));
#786 = ORIENTED_EDGE('',*,*,#787,.T.);
#787 = EDGE_CURVE('',#763,#788,#790,.T.);
#788 = VERTEX_POINT('',#789);
#789 = CARTESIAN_POINT('',(0.1,7.249310312023,7.3));
#790 = HYPERBOLA('',#791,0.943070921142,0.622605340934);
#791 = AXIS2_PLACEMENT_3D('',#792,#793,#794);
#792 = CARTESIAN_POINT('',(0.624219183264,-8.234752543279E-16,
    -3.70860284854));
#793 = DIRECTION('',(-0.998868137724,-1.056158481015E-17,
    -4.756514941545E-02));
#794 = DIRECTION('',(-4.756514941545E-02,2.217932810132E-16,
    0.998868137724));
#795 = ORIENTED_EDGE('',*,*,#796,.T.);
#796 = EDGE_CURVE('',#788,#75,#797,.T.);
#797 = LINE('',#798,#799);
#798 = CARTESIAN_POINT('',(0.1,-24.0135863419,7.3));
#799 = VECTOR('',#800,1.);
#800 = DIRECTION('',(0.,1.,-2.22044604925E-16));
#801 = ORIENTED_EDGE('',*,*,#83,.F.);
#802 = ORIENTED_EDGE('',*,*,#773,.F.);
#803 = PLANE('',#804);
#804 = AXIS2_PLACEMENT_3D('',#805,#806,#807);
#805 = CARTESIAN_POINT('',(0.1,-24.0135863419,7.3));
#806 = DIRECTION('',(-0.998868137724,-1.056158481015E-17,
    -4.756514941545E-02));
#807 = DIRECTION('',(4.756514941545E-02,-2.217932810132E-16,
    -0.998868137724));
#808 = ADVANCED_FACE('',(#809),#828,.F.);
#809 = FACE_BOUND('',#810,.T.);
#810 = EDGE_LOOP('',(#811,#812,#821,#827));
#811 = ORIENTED_EDGE('',*,*,#796,.F.);
#812 = ORIENTED_EDGE('',*,*,#813,.T.);
#813 = EDGE_CURVE('',#788,#814,#816,.T.);
#814 = VERTEX_POINT('',#815);
#815 = CARTESIAN_POINT('',(6.228086890128,3.71125769639,7.3));
#816 = CIRCLE('',#817,7.25);
#817 = AXIS2_PLACEMENT_3D('',#818,#819,#820);
#818 = CARTESIAN_POINT('',(0.,1.620925615953E-15,7.3));
#819 = DIRECTION('',(0.,-2.22044604925E-16,-1.));
#820 = DIRECTION('',(1.,0.,0.));
#821 = ORIENTED_EDGE('',*,*,#822,.T.);
#822 = EDGE_CURVE('',#814,#66,#823,.T.);
#823 = LINE('',#824,#825);
#824 = CARTESIAN_POINT('',(-20.84637580805,-11.92019063057,7.3));
#825 = VECTOR('',#826,1.);
#826 = DIRECTION('',(0.866025403784,0.5,1.110223024625E-16));
#827 = ORIENTED_EDGE('',*,*,#74,.F.);
#828 = PLANE('',#829);
#829 = AXIS2_PLACEMENT_3D('',#830,#831,#832);
#830 = CARTESIAN_POINT('',(0.,1.620925615953E-15,7.3));
#831 = DIRECTION('',(-0.,-2.22044604925E-16,-1.));
#832 = DIRECTION('',(1.,0.,0.));
#833 = ADVANCED_FACE('',(#834),#853,.F.);
#834 = FACE_BOUND('',#835,.F.);
#835 = EDGE_LOOP('',(#836,#845,#846,#847));
#836 = ORIENTED_EDGE('',*,*,#837,.T.);
#837 = EDGE_CURVE('',#838,#814,#840,.T.);
#838 = VERTEX_POINT('',#839);
#839 = CARTESIAN_POINT('',(4.340741364199,2.794803329698,4.15));
#840 = HYPERBOLA('',#841,0.943070921142,0.622605340934);
#841 = AXIS2_PLACEMENT_3D('',#842,#843,#844);
#842 = CARTESIAN_POINT('',(-0.312109591632,0.540589670236,-3.70860284854
    ));
#843 = DIRECTION('',(-0.499434068862,0.8650451823,4.756514941545E-02));
#844 = DIRECTION('',(2.378257470772E-02,-4.119262772858E-02,
    0.998868137724));
#845 = ORIENTED_EDGE('',*,*,#822,.T.);
#846 = ORIENTED_EDGE('',*,*,#65,.F.);
#847 = ORIENTED_EDGE('',*,*,#848,.F.);
#848 = EDGE_CURVE('',#838,#57,#849,.T.);
#849 = LINE('',#850,#851);
#850 = CARTESIAN_POINT('',(-20.92137580805,-11.79028682,4.15));
#851 = VECTOR('',#852,1.);
#852 = DIRECTION('',(0.866025403784,0.5,1.110223024625E-16));
#853 = PLANE('',#854);
#854 = AXIS2_PLACEMENT_3D('',#855,#856,#857);
#855 = CARTESIAN_POINT('',(-20.84637580805,-11.92019063057,7.3));
#856 = DIRECTION('',(-0.499434068862,0.8650451823,4.756514941545E-02));
#857 = DIRECTION('',(-2.378257470772E-02,4.119262772858E-02,
    -0.998868137724));
#858 = ADVANCED_FACE('',(#859),#878,.F.);
#859 = FACE_BOUND('',#860,.F.);
#860 = EDGE_LOOP('',(#861,#870,#871,#872));
#861 = ORIENTED_EDGE('',*,*,#862,.T.);
#862 = EDGE_CURVE('',#863,#838,#865,.T.);
#863 = VERTEX_POINT('',#864);
#864 = CARTESIAN_POINT('',(4.590741364199,2.361790627806,4.15));
#865 = CIRCLE('',#866,5.16265060241);
#866 = AXIS2_PLACEMENT_3D('',#867,#868,#869);
#867 = CARTESIAN_POINT('',(0.,9.214851104389E-16,4.15));
#868 = DIRECTION('',(-0.,2.22044604925E-16,1.));
#869 = DIRECTION('',(1.,0.,0.));
#870 = ORIENTED_EDGE('',*,*,#848,.T.);
#871 = ORIENTED_EDGE('',*,*,#56,.F.);
#872 = ORIENTED_EDGE('',*,*,#873,.F.);
#873 = EDGE_CURVE('',#863,#48,#874,.T.);
#874 = LINE('',#875,#876);
#875 = CARTESIAN_POINT('',(-20.67137580805,-12.22329952189,4.15));
#876 = VECTOR('',#877,1.);
#877 = DIRECTION('',(0.866025403784,0.5,1.110223024625E-16));
#878 = PLANE('',#879);
#879 = AXIS2_PLACEMENT_3D('',#880,#881,#882);
#880 = CARTESIAN_POINT('',(-20.92137580805,-11.79028682,4.15));
#881 = DIRECTION('',(7.023770310776E-17,1.003893345355E-16,-1.));
#882 = DIRECTION('',(0.5,-0.866025403784,-5.182086242284E-17));
#883 = ADVANCED_FACE('',(#884),#896,.F.);
#884 = FACE_BOUND('',#885,.F.);
#885 = EDGE_LOOP('',(#886,#893,#894,#895));
#886 = ORIENTED_EDGE('',*,*,#887,.T.);
#887 = EDGE_CURVE('',#296,#863,#888,.T.);
#888 = HYPERBOLA('',#889,0.943070921142,0.622605340934);
#889 = AXIS2_PLACEMENT_3D('',#890,#891,#892);
#890 = CARTESIAN_POINT('',(0.312109591632,-0.540589670236,-3.70860284854
    ));
#891 = DIRECTION('',(0.499434068862,-0.8650451823,4.756514941545E-02));
#892 = DIRECTION('',(-2.378257470772E-02,4.119262772858E-02,
    0.998868137724));
#893 = ORIENTED_EDGE('',*,*,#873,.T.);
#894 = ORIENTED_EDGE('',*,*,#47,.F.);
#895 = ORIENTED_EDGE('',*,*,#295,.F.);
#896 = PLANE('',#897);
#897 = AXIS2_PLACEMENT_3D('',#898,#899,#900);
#898 = CARTESIAN_POINT('',(-20.67137580805,-12.22329952189,4.15));
#899 = DIRECTION('',(0.499434068862,-0.8650451823,4.756514941545E-02));
#900 = DIRECTION('',(-2.378257470772E-02,4.119262772858E-02,
    0.998868137724));
#901 = ADVANCED_FACE('',(#902,#905),#916,.F.);
#902 = FACE_BOUND('',#903,.F.);
#903 = EDGE_LOOP('',(#904));
#904 = ORIENTED_EDGE('',*,*,#280,.T.);
#905 = FACE_BOUND('',#906,.T.);
#906 = EDGE_LOOP('',(#907));
#907 = ORIENTED_EDGE('',*,*,#908,.T.);
#908 = EDGE_CURVE('',#909,#909,#911,.T.);
#909 = VERTEX_POINT('',#910);
#910 = CARTESIAN_POINT('',(2.65,0.,0.));
#911 = CIRCLE('',#912,2.65);
#912 = AXIS2_PLACEMENT_3D('',#913,#914,#915);
#913 = CARTESIAN_POINT('',(0.,0.,0.));
#914 = DIRECTION('',(0.,0.,1.));
#915 = DIRECTION('',(1.,0.,0.));
#916 = PLANE('',#917);
#917 = AXIS2_PLACEMENT_3D('',#918,#919,#920);
#918 = CARTESIAN_POINT('',(-3.851944035322E-16,3.143741851621E-16,0.));
#919 = DIRECTION('',(0.,0.,1.));
#920 = DIRECTION('',(1.,0.,0.));
#921 = ADVANCED_FACE('',(#922),#965,.F.);
#922 = FACE_BOUND('',#923,.T.);
#923 = EDGE_LOOP('',(#924,#933,#939,#940,#941,#942,#943,#944,#945,#946,
    #947,#948,#949,#950,#951,#952,#953,#954,#955,#956,#957,#958,#959,
    #960,#961,#962,#963,#964));
#924 = ORIENTED_EDGE('',*,*,#925,.T.);
#925 = EDGE_CURVE('',#926,#926,#928,.T.);
#926 = VERTEX_POINT('',#927);
#927 = CARTESIAN_POINT('',(4.5,6.994405055138E-16,3.15));
#928 = CIRCLE('',#929,4.5);
#929 = AXIS2_PLACEMENT_3D('',#930,#931,#932);
#930 = CARTESIAN_POINT('',(0.,6.994405055138E-16,3.15));
#931 = DIRECTION('',(0.,-2.22044604925E-16,-1.));
#932 = DIRECTION('',(1.,0.,0.));
#933 = ORIENTED_EDGE('',*,*,#934,.T.);
#934 = EDGE_CURVE('',#926,#304,#935,.T.);
#935 = LINE('',#936,#937);
#936 = CARTESIAN_POINT('',(4.5,6.994405055138E-16,3.15));
#937 = VECTOR('',#938,1.);
#938 = DIRECTION('',(0.552380364401,1.850946476707E-16,0.833592186278));
#939 = ORIENTED_EDGE('',*,*,#303,.F.);
#940 = ORIENTED_EDGE('',*,*,#887,.T.);
#941 = ORIENTED_EDGE('',*,*,#862,.T.);
#942 = ORIENTED_EDGE('',*,*,#837,.T.);
#943 = ORIENTED_EDGE('',*,*,#813,.F.);
#944 = ORIENTED_EDGE('',*,*,#787,.F.);
#945 = ORIENTED_EDGE('',*,*,#762,.T.);
#946 = ORIENTED_EDGE('',*,*,#737,.T.);
#947 = ORIENTED_EDGE('',*,*,#714,.F.);
#948 = ORIENTED_EDGE('',*,*,#687,.T.);
#949 = ORIENTED_EDGE('',*,*,#662,.T.);
#950 = ORIENTED_EDGE('',*,*,#637,.T.);
#951 = ORIENTED_EDGE('',*,*,#614,.F.);
#952 = ORIENTED_EDGE('',*,*,#596,.T.);
#953 = ORIENTED_EDGE('',*,*,#571,.T.);
#954 = ORIENTED_EDGE('',*,*,#546,.T.);
#955 = ORIENTED_EDGE('',*,*,#514,.F.);
#956 = ORIENTED_EDGE('',*,*,#496,.T.);
#957 = ORIENTED_EDGE('',*,*,#471,.T.);
#958 = ORIENTED_EDGE('',*,*,#439,.F.);
#959 = ORIENTED_EDGE('',*,*,#413,.F.);
#960 = ORIENTED_EDGE('',*,*,#396,.T.);
#961 = ORIENTED_EDGE('',*,*,#371,.T.);
#962 = ORIENTED_EDGE('',*,*,#346,.T.);
#963 = ORIENTED_EDGE('',*,*,#312,.F.);
#964 = ORIENTED_EDGE('',*,*,#934,.F.);
#965 = CONICAL_SURFACE('',#966,4.5,0.585217095432);
#966 = AXIS2_PLACEMENT_3D('',#967,#968,#969);
#967 = CARTESIAN_POINT('',(0.,6.994405055138E-16,3.15));
#968 = DIRECTION('',(0.,2.22044604925E-16,1.));
#969 = DIRECTION('',(1.,0.,0.));
#970 = ADVANCED_FACE('',(#971),#990,.F.);
#971 = FACE_BOUND('',#972,.T.);
#972 = EDGE_LOOP('',(#973,#981,#988,#989));
#973 = ORIENTED_EDGE('',*,*,#974,.T.);
#974 = EDGE_CURVE('',#909,#975,#977,.T.);
#975 = VERTEX_POINT('',#976);
#976 = CARTESIAN_POINT('',(2.65,0.,3.15));
#977 = LINE('',#978,#979);
#978 = CARTESIAN_POINT('',(2.65,0.,0.));
#979 = VECTOR('',#980,1.);
#980 = DIRECTION('',(0.,0.,1.));
#981 = ORIENTED_EDGE('',*,*,#982,.T.);
#982 = EDGE_CURVE('',#975,#975,#983,.T.);
#983 = CIRCLE('',#984,2.65);
#984 = AXIS2_PLACEMENT_3D('',#985,#986,#987);
#985 = CARTESIAN_POINT('',(0.,0.,3.15));
#986 = DIRECTION('',(0.,0.,1.));
#987 = DIRECTION('',(1.,0.,0.));
#988 = ORIENTED_EDGE('',*,*,#974,.F.);
#989 = ORIENTED_EDGE('',*,*,#908,.F.);
#990 = CYLINDRICAL_SURFACE('',#991,2.65);
#991 = AXIS2_PLACEMENT_3D('',#992,#993,#994);
#992 = CARTESIAN_POINT('',(0.,0.,0.));
#993 = DIRECTION('',(-0.,-0.,-1.));
#994 = DIRECTION('',(1.,0.,0.));
#995 = ADVANCED_FACE('',(#996,#999),#1002,.T.);
#996 = FACE_BOUND('',#997,.T.);
#997 = EDGE_LOOP('',(#998));
#998 = ORIENTED_EDGE('',*,*,#925,.F.);
#999 = FACE_BOUND('',#1000,.T.);
#1000 = EDGE_LOOP('',(#1001));
#1001 = ORIENTED_EDGE('',*,*,#982,.F.);
#1002 = PLANE('',#1003);
#1003 = AXIS2_PLACEMENT_3D('',#1004,#1005,#1006);
#1004 = CARTESIAN_POINT('',(-3.851944035322E-16,3.143741851621E-16,3.15)
  );
#1005 = DIRECTION('',(0.,0.,1.));
#1006 = DIRECTION('',(1.,0.,0.));
#1007 = ( GEOMETRIC_REPRESENTATION_CONTEXT(3) 
GLOBAL_UNCERTAINTY_ASSIGNED_CONTEXT((#1011)) 
GLOBAL_UNIT_ASSIGNED_CONTEXT((#1008,#1009,#1010)) REPRESENTATION_CONTEXT
('Context #1','3D Context with UNIT and UNCERTAINTY') );
#1008 = ( LENGTH_UNIT() NAMED_UNIT(*) SI_UNIT(.MILLI.,.METRE.) );
#1009 = ( NAMED_UNIT(*) PLANE_ANGLE_UNIT() SI_UNIT($,.RADIAN.) );
#1010 = ( NAMED_UNIT(*) SI_UNIT($,.STERADIAN.) SOLID_ANGLE_UNIT() );
#1011 = UNCERTAINTY_MEASURE_WITH_UNIT(LENGTH_MEASURE(1.E-07),#1008,
  'distance_accuracy_value','confusion accuracy');
#1012 = PRODUCT_RELATED_PRODUCT_CATEGORY('part',$,(#7));
#1013 = MECHANICAL_DESIGN_GEOMETRIC_PRESENTATION_REPRESENTATION('',(
    #1014),#1007);
#1014 = STYLED_ITEM('color',(#1015),#15);
#1015 = PRESENTATION_STYLE_ASSIGNMENT((#1016,#1022));
#1016 = SURFACE_STYLE_USAGE(.BOTH.,#1017);
#1017 = SURFACE_SIDE_STYLE('',(#1018));
#1018 = SURFACE_STYLE_FILL_AREA(#1019);
#1019 = FILL_AREA_STYLE('',(#1020));
#1020 = FILL_AREA_STYLE_COLOUR('',#1021);
#1021 = COLOUR_RGB('',0.447058818107,0.474509808674,0.501960817233);
#1022 = CURVE_STYLE('',#1023,POSITIVE_LENGTH_MEASURE(0.1),#1024);
#1023 = DRAUGHTING_PRE_DEFINED_CURVE_FONT('continuous');
#1024 = COLOUR_RGB('',9.803921802644E-02,9.803921802644E-02,
  9.803921802644E-02);
ENDSEC;
END-ISO-10303-21;
